<svg xmlns="http://www.w3.org/2000/svg" xmlns:xlink="http://www.w3.org/1999/xlink" width="512" zoomAndPan="magnify" viewBox="0 0 384 383.999986" height="512" preserveAspectRatio="xMidYMid meet" version="1.0"><path fill="#000000" d="M 9.941406 36.628906 C 12.351562 38.921875 27.453125 52.234375 43.507812 66.21875 C 112.539062 126.339844 144.410156 153.472656 146.003906 153.472656 C 146.945312 153.472656 156.101562 145.96875 166.355469 136.796875 L 185 120.125 L 179.179688 114.359375 C 175.980469 111.191406 153.476562 91.5 129.179688 70.601562 L 85.003906 32.609375 L 45.285156 32.535156 L 5.5625 32.460938 Z M 268.320312 69.554688 C 241.800781 94.402344 215.296875 119.269531 188.800781 144.148438 C 166.703125 164.917969 132.300781 196.972656 112.359375 215.390625 L 44.527344 278.019531 L 12.960938 307.167969 L 50.402344 307.644531 C 70.992188 307.90625 88.949219 307.5 90.304688 306.746094 C 91.65625 305.988281 99.367188 299.007812 107.4375 291.230469 C 115.507812 283.453125 127.699219 271.9375 134.523438 265.632812 C 141.351562 259.328125 164.835938 237.476562 186.714844 217.070312 C 313.484375 98.832031 374.234375 42.441406 378.234375 39.292969 C 380.722656 37.339844 382.757812 35 382.757812 34.097656 C 382.757812 33.140625 367.195312 32.515625 345.207031 32.589844 L 307.65625 32.71875 Z M 545.933594 140.222656 L 492.636719 141.105469 L 485.976562 146.5 C 474.851562 155.507812 471.996094 163.0625 471.996094 183.503906 C 471.996094 199.09375 472.519531 202.105469 476.4375 209.097656 C 477.882812 211.695312 479.65625 214.042969 481.757812 216.144531 C 483.859375 218.242188 486.210938 220.019531 488.804688 221.464844 C 496.707031 225.890625 496.910156 225.90625 549.304688 226.441406 L 601.878906 226.980469 L 601.878906 209.121094 L 554.933594 209.121094 C 526.113281 209.121094 506.675781 208.417969 504.589844 207.300781 C 502.71875 206.300781 499.988281 203.160156 498.519531 200.324219 C 494.996094 193.507812 495.003906 173.488281 498.53125 166.664062 C 503.667969 156.742188 507.082031 156.121094 556.726562 156.121094 L 601.878906 156.121094 L 601.878906 148.277344 C 601.878906 143.960938 601.28125 140.1875 600.550781 139.886719 C 599.820312 139.585938 575.242188 139.738281 545.933594 140.222656 M 944.691406 183.0625 L 944.691406 226.785156 L 1059.554688 226.785156 L 1059.554688 210.886719 L 967.664062 210.886719 L 967.664062 189.6875 L 1050.71875 189.6875 L 1050.71875 171.898438 L 1009.191406 172.402344 L 967.660156 172.90625 L 967.664062 163.632812 L 967.664062 154.355469 L 1059.554688 154.355469 L 1059.554688 140.320312 L 1002.125 139.828125 L 944.691406 139.339844 Z M 643.992188 160.265625 C 655.332031 171.292969 667.988281 183.308594 672.117188 186.972656 L 679.628906 193.632812 L 679.628906 226.785156 L 703.734375 226.785156 L 704.140625 211.035156 L 704.542969 195.285156 L 720.800781 179.601562 C 730.324219 170.414062 739.867188 161.25 749.429688 152.101562 L 761.800781 140.289062 L 746.777344 140.277344 L 731.757812 140.265625 L 712.320312 158.785156 C 701.628906 168.972656 692.4375 177.3125 691.894531 177.316406 C 691.347656 177.320312 682.6875 168.976562 672.644531 158.773438 L 654.386719 140.222656 L 623.378906 140.222656 Z M 787.421875 183.503906 L 787.421875 226.785156 L 836.8125 226.785156 C 891.574219 226.785156 902.054688 225.519531 909.582031 217.996094 C 919.582031 207.996094 916.894531 190.363281 904.417969 184.132812 L 898.601562 181.226562 L 902.8125 177.917969 C 914.761719 168.515625 913.78125 153.085938 900.671875 144.25 C 894.773438 140.277344 893.960938 140.222656 841.054688 140.222656 L 787.421875 140.222656 Z M 1091.359375 183.503906 L 1091.359375 226.785156 L 1114.332031 226.785156 L 1114.332031 196.753906 L 1140.398438 196.8125 L 1166.460938 196.867188 L 1177.902344 211.828125 L 1189.339844 226.785156 L 1220.691406 226.785156 L 1207.121094 211.84375 C 1194.160156 197.574219 1192.226562 193.230469 1198.816406 193.214844 C 1205.03125 193.199219 1213.535156 186.054688 1217.203125 177.757812 C 1220.464844 170.390625 1220.636719 168.554688 1218.742188 161.464844 C 1217.566406 157.070312 1214.863281 151.582031 1212.738281 149.269531 C 1204.863281 140.707031 1201.210938 140.222656 1144.429688 140.222656 L 1091.359375 140.222656 Z M 1265.84375 142.75 C 1257.699219 145.65625 1254.941406 147.871094 1250.597656 154.996094 C 1241.417969 170.070312 1242.148438 200.433594 1251.980469 212.65625 C 1262.332031 225.515625 1264.039062 225.902344 1310.480469 225.902344 C 1349.1875 225.902344 1352.425781 225.660156 1358.1875 222.273438 C 1369.429688 215.671875 1372.328125 209.121094 1372.328125 190.308594 L 1372.328125 173.789062 L 1312.246094 173.789062 L 1312.246094 191.453125 L 1351.566406 191.453125 L 1350.417969 197.191406 C 1349.785156 200.34375 1347.675781 204.519531 1345.726562 206.464844 C 1342.453125 209.730469 1339.84375 210.003906 1311.671875 210.003906 C 1274.777344 210.003906 1272.996094 209.324219 1269.808594 193.972656 C 1266.523438 178.152344 1270.382812 163.058594 1278.832031 158.691406 C 1282.789062 156.644531 1292.8125 156.121094 1328.0625 156.121094 L 1372.328125 156.121094 L 1372.328125 140.222656 L 1322.40625 140.300781 C 1285.300781 140.359375 1270.78125 140.988281 1265.84375 142.75 M 810.394531 164.074219 L 810.394531 173.789062 L 844.457031 173.789062 C 881.542969 173.789062 886.378906 172.667969 886.378906 164.074219 C 886.378906 155.476562 881.542969 154.355469 844.457031 154.355469 L 810.394531 154.355469 Z M 1114.332031 167.605469 L 1114.332031 179.089844 L 1150.164062 179.089844 C 1190.855469 179.089844 1193.851562 178.300781 1193.851562 167.605469 C 1193.851562 156.910156 1190.855469 156.121094 1150.164062 156.121094 L 1114.332031 156.121094 Z M 216.34375 213.902344 L 190.144531 239.882812 L 190.144531 370.027344 L 217.46875 344.78125 L 244.789062 319.535156 L 244.859375 253.726562 C 244.894531 217.535156 244.386719 187.921875 243.734375 187.921875 C 243.078125 187.921875 230.75 199.613281 216.34375 213.902344 M 810.394531 200.386719 L 810.394531 211.085938 L 847.320312 210.546875 C 880.710938 210.054688 884.605469 209.679688 887.964844 206.640625 C 892.632812 202.410156 892.695312 197.769531 888.144531 193.222656 C 884.835938 189.914062 882.257812 189.6875 847.503906 189.6875 L 810.394531 189.6875 Z M 810.394531 200.386719 " fill-opacity="1" fill-rule="evenodd"/></svg>