<svg width="34" height="34" viewBox="0 0 34 34" fill="none" xmlns="http://www.w3.org/2000/svg">
<rect x="0.754883" y="0.211182" width="33.2552" height="33.2552" rx="4.98828" fill="#431F30"/>
<path d="M12.1931 20.308C11.7089 20.308 11.3381 19.8773 11.4101 19.3985L11.4911 18.86C11.5494 18.4725 11.8823 18.186 12.2741 18.186H17.2208C17.6126 18.186 17.9455 18.4725 18.0038 18.86L18.0848 19.3985C18.1569 19.8773 17.786 20.308 17.3018 20.308H12.1931ZM15.4337 16.0865C15.159 15.4505 14.2577 15.4492 13.981 16.0843L12.8196 18.7501C12.7661 18.8728 12.7446 19.007 12.7571 19.1403L12.7746 19.3264C12.7876 19.4651 12.7638 19.6047 12.7056 19.7312L11.2787 22.8331C11.1495 23.114 10.8686 23.294 10.5594 23.294H9.30051C8.71773 23.294 8.33465 22.6856 8.58644 22.1601L13.9958 10.8689C14.2831 10.2693 15.1367 10.2693 15.424 10.8689L20.8334 22.1601C21.0852 22.6856 20.7021 23.294 20.1193 23.294H18.8399C18.5316 23.294 18.2513 23.115 18.1216 22.8354L16.7275 19.8303C16.6728 19.7124 16.648 19.5829 16.6552 19.4532L16.6714 19.1612C16.6782 19.0386 16.6564 18.916 16.6076 18.8032L15.4337 16.0865Z" fill="#FF007A"/>
<path d="M22.8027 10.9402C22.8027 10.5029 23.1572 10.1484 23.5944 10.1484H24.7339C25.1712 10.1484 25.5257 10.5029 25.5257 10.9402V22.5022C25.5257 22.9395 25.1712 23.294 24.7339 23.294H23.5944C23.1572 23.294 22.8027 22.9395 22.8027 22.5022V10.9402Z" fill="#FF007A"/>
</svg>
