<svg width="34" height="34" viewBox="0 0 34 34" fill="none" xmlns="http://www.w3.org/2000/svg">
<rect x="0.704834" y="0.290527" width="33.2552" height="33.2552" rx="4.98828" fill="#251B2D"/>
<path d="M12.4985 16.7069C12.3236 16.7069 12.1818 16.5651 12.1818 16.3902V15.803C12.1818 15.6281 12.3236 15.4863 12.4985 15.4863H14.3038C14.6919 15.4863 15.03 15.4237 15.3179 15.2985C15.6059 15.1733 15.825 14.9917 15.9752 14.7539C16.138 14.516 16.2193 14.2343 16.2193 13.9088C16.2193 13.408 16.0441 13.0262 15.6935 12.7632C15.3555 12.5003 14.8923 12.3689 14.3038 12.3689H13.1745C12.9996 12.3689 12.8578 12.5107 12.8578 12.6856V20.916C12.8578 21.091 12.9996 21.2328 13.1745 21.2328H14.5855C15.0362 21.2328 15.4431 21.1702 15.8062 21.045C16.1693 20.9073 16.4509 20.6944 16.6513 20.4065C16.8641 20.1185 16.9705 19.7492 16.9705 19.2985C16.9705 18.973 16.9079 18.6975 16.7827 18.4722C16.67 18.2343 16.501 18.0403 16.2757 17.89C16.0628 17.7273 15.8124 17.6146 15.5245 17.552C15.2365 17.4769 14.9236 17.4393 14.5855 17.4393H12.4985C12.3236 17.4393 12.1818 17.2975 12.1818 17.1226V16.2912C12.1818 16.1163 12.3236 15.9745 12.4985 15.9745H14.8297C15.4682 15.9745 16.0754 16.0434 16.6513 16.1811C17.2397 16.3188 17.7655 16.5379 18.2287 16.8384C18.692 17.1263 19.055 17.5019 19.3179 17.9651C19.5934 18.4284 19.7311 18.9855 19.7311 19.6365C19.7311 20.5004 19.5245 21.2077 19.1114 21.7586C18.7107 22.3094 18.1411 22.7163 17.4024 22.9792C16.6638 23.2422 15.8062 23.3736 14.8297 23.3736H10.4891C10.3142 23.3736 10.1724 23.2318 10.1724 23.0569V10.5447C10.1724 10.3698 10.3142 10.228 10.4891 10.228H14.548C15.4243 10.228 16.1943 10.3532 16.8578 10.6036C17.5214 10.8415 18.0409 11.2046 18.4165 11.6928C18.7921 12.1811 18.9799 12.8008 18.9799 13.552C18.9799 14.2155 18.7921 14.7852 18.4165 15.2609C18.0409 15.7367 17.5214 16.0997 16.8578 16.3501C16.1943 16.588 15.4243 16.7069 14.548 16.7069H12.4985Z" fill="#8F00FF"/>
<path d="M20.6862 15.0518C20.6862 14.8769 20.828 14.7351 21.0029 14.7351H25.7028C25.8777 14.7351 26.0195 14.8769 26.0195 15.0518V16.4653C26.0195 16.6402 25.8777 16.782 25.7028 16.782H21.0029C20.828 16.782 20.6862 16.6402 20.6862 16.4653V15.0518ZM22.1698 12.0471C22.1698 11.8722 22.3116 11.7304 22.4865 11.7304H24.2005C24.3754 11.7304 24.5172 11.8722 24.5172 12.0471V23.0569C24.5172 23.2318 24.3754 23.3736 24.2005 23.3736H22.4865C22.3116 23.3736 22.1698 23.2318 22.1698 23.0569V12.0471Z" fill="#8F00FF"/>
</svg>
