<svg width="35" height="34" viewBox="0 0 35 34" fill="none" xmlns="http://www.w3.org/2000/svg">
<rect x="0.805664" y="0.290527" width="33.2552" height="33.2552" rx="4.98828" fill="#322815"/>
<path d="M9.36979 16.8007C9.36979 17.6646 9.56385 18.422 9.95196 19.073C10.3526 19.7115 10.8721 20.2061 11.5106 20.5566C12.1491 20.8946 12.844 21.0637 13.5952 21.0637C14.2211 21.0637 14.7783 20.9823 15.2665 20.8195C15.7548 20.6568 16.193 20.4377 16.5811 20.1622C16.9761 19.8907 17.614 20.1558 17.614 20.6351V21.8157C17.614 22.1117 17.481 22.3951 17.2365 22.5618C16.8037 22.8569 16.3411 23.0962 15.8487 23.2796C15.2227 23.5175 14.4277 23.6364 13.4637 23.6364C12.4621 23.6364 11.5294 23.4737 10.6656 23.1482C9.81424 22.8227 9.06932 22.3532 8.43082 21.7397C7.80484 21.1263 7.31658 20.4064 6.96603 19.5801C6.628 18.7413 6.45898 17.8148 6.45898 16.8007C6.45898 15.7866 6.628 14.8665 6.96603 14.0402C7.31658 13.2013 7.80484 12.4752 8.43082 11.8617C9.06932 11.2483 9.81424 10.7788 10.6656 10.4533C11.5294 10.1278 12.4621 9.96503 13.4637 9.96503C14.4277 9.96503 15.2227 10.084 15.8487 10.3218C16.3411 10.5053 16.8037 10.7445 17.2365 11.0397C17.481 11.2064 17.614 11.4898 17.614 11.7857V12.9663C17.614 13.4457 16.9761 13.7108 16.5811 13.4392C16.193 13.1638 15.7548 12.9447 15.2665 12.7819C14.7783 12.6192 14.2211 12.5378 13.5952 12.5378C12.844 12.5378 12.1491 12.7131 11.5106 13.0636C10.8721 13.4017 10.3526 13.8899 9.95196 14.5284C9.56385 15.1669 9.36979 15.9244 9.36979 16.8007Z" fill="#FFA800"/>
<path d="M21.2814 8.72559C21.9555 8.72559 22.502 9.27209 22.502 9.94625V22.1529C22.502 22.827 21.9555 23.3735 21.2814 23.3735C20.6072 23.3735 20.0607 22.827 20.0607 22.1529V9.94625C20.0607 9.27209 20.6072 8.72559 21.2814 8.72559ZM25.6382 18.1153C25.6382 17.5394 25.5255 17.1012 25.3002 16.8007C25.0873 16.5003 24.7243 16.35 24.211 16.35C23.8729 16.35 23.5725 16.4251 23.3095 16.5754C23.0466 16.7131 22.8463 16.9134 22.7086 17.1763C22.6027 17.3784 22.5376 17.6102 22.5131 17.8715C22.5005 18.0057 22.3927 18.1153 22.2579 18.1153C22.1231 18.1153 22.0132 18.0059 22.0186 17.8712C22.0423 17.2795 22.1534 16.7411 22.3518 16.2561C22.5897 15.7053 22.9402 15.2671 23.4034 14.9416C23.8667 14.6161 24.4363 14.4533 25.1124 14.4533C25.7884 14.4533 26.3455 14.5785 26.7837 14.8289C27.2219 15.0793 27.5474 15.4549 27.7603 15.9557C27.9731 16.4439 28.0795 17.0449 28.0795 17.7585V22.1529C28.0795 22.827 27.533 23.3735 26.8589 23.3735C26.1847 23.3735 25.6382 22.827 25.6382 22.1529V18.1153Z" fill="#FFA800"/>
</svg>
