<svg width="25" height="24" viewBox="0 0 25 24" fill="none" xmlns="http://www.w3.org/2000/svg">
<mask id="path-1-inside-1_321_9875" fill="white">
<path d="M0.150391 2.25C0.150391 1.00736 1.15775 0 2.40039 0H21.9004C23.143 0 24.1504 1.00736 24.1504 2.25V21.75C24.1504 22.9926 23.143 24 21.9004 24H2.40039C1.15775 24 0.150391 22.9926 0.150391 21.75V2.25Z"/>
</mask>
<g clip-path="url(#paint0_angular_321_9875_clip_path)" data-figma-skip-parse="true" mask="url(#path-1-inside-1_321_9875)"><g transform="matrix(0 0.012 -0.012 0 12.1504 12)"><foreignObject x="-1125" y="-1125" width="2250" height="2250"><div xmlns="http://www.w3.org/1999/xhtml" style="background:conic-gradient(from 90deg,rgba(158, 0, 255, 1) 0deg,rgba(182, 7, 226, 1) 14.4deg,rgba(255, 0, 137, 1) 73.8deg,rgba(255, 45, 0, 1) 131.4deg,rgba(255, 183, 0, 1) 185.4deg,rgba(20, 242, 148, 1) 239.4deg,rgba(0, 132, 255, 1) 300.6deg,rgba(158, 0, 255, 1) 360deg);height:100%;width:100%;opacity:1"></div></foreignObject></g></g><path d="M2.40039 0V1.5H21.9004V0V-1.5H2.40039V0ZM24.1504 2.25H22.6504V21.75H24.1504H25.6504V2.25H24.1504ZM21.9004 24V22.5H2.40039V24V25.5H21.9004V24ZM0.150391 21.75H1.65039V2.25H0.150391H-1.34961V21.75H0.150391ZM2.40039 24V22.5C1.98618 22.5 1.65039 22.1642 1.65039 21.75H0.150391H-1.34961C-1.34961 23.8211 0.329322 25.5 2.40039 25.5V24ZM24.1504 21.75H22.6504C22.6504 22.1642 22.3146 22.5 21.9004 22.5V24V25.5C23.9715 25.5 25.6504 23.8211 25.6504 21.75H24.1504ZM21.9004 0V1.5C22.3146 1.5 22.6504 1.83579 22.6504 2.25H24.1504H25.6504C25.6504 0.178932 23.9715 -1.5 21.9004 -1.5V0ZM2.40039 0V-1.5C0.329323 -1.5 -1.34961 0.178932 -1.34961 2.25H0.150391H1.65039C1.65039 1.83579 1.98618 1.5 2.40039 1.5V0Z" data-figma-gradient-fill="{&#34;type&#34;:&#34;GRADIENT_ANGULAR&#34;,&#34;stops&#34;:[{&#34;color&#34;:{&#34;r&#34;:0.71450978517532349,&#34;g&#34;:0.027450980618596077,&#34;b&#34;:0.88627451658248901,&#34;a&#34;:1.0},&#34;position&#34;:0.039999999105930328},{&#34;color&#34;:{&#34;r&#34;:1.0,&#34;g&#34;:0.0,&#34;b&#34;:0.54000002145767212,&#34;a&#34;:1.0},&#34;position&#34;:0.20499999821186066},{&#34;color&#34;:{&#34;r&#34;:1.0,&#34;g&#34;:0.17999997735023499,&#34;b&#34;:0.0,&#34;a&#34;:1.0},&#34;position&#34;:0.36500000953674316},{&#34;color&#34;:{&#34;r&#34;:1.0,&#34;g&#34;:0.72000002861022949,&#34;b&#34;:0.0,&#34;a&#34;:1.0},&#34;position&#34;:0.51499998569488525},{&#34;color&#34;:{&#34;r&#34;:0.079166665673255920,&#34;g&#34;:0.94999998807907104,&#34;b&#34;:0.58424997329711914,&#34;a&#34;:1.0},&#34;position&#34;:0.66500002145767212},{&#34;color&#34;:{&#34;r&#34;:0.0,&#34;g&#34;:0.52000004053115845,&#34;b&#34;:1.0,&#34;a&#34;:1.0},&#34;position&#34;:0.83499997854232788},{&#34;color&#34;:{&#34;r&#34;:0.62000000476837158,&#34;g&#34;:0.0,&#34;b&#34;:1.0,&#34;a&#34;:1.0},&#34;position&#34;:1.0}],&#34;stopsVar&#34;:[{&#34;color&#34;:{&#34;r&#34;:0.71450978517532349,&#34;g&#34;:0.027450980618596077,&#34;b&#34;:0.88627451658248901,&#34;a&#34;:1.0},&#34;position&#34;:0.039999999105930328},{&#34;color&#34;:{&#34;r&#34;:1.0,&#34;g&#34;:0.0,&#34;b&#34;:0.54000002145767212,&#34;a&#34;:1.0},&#34;position&#34;:0.20499999821186066},{&#34;color&#34;:{&#34;r&#34;:1.0,&#34;g&#34;:0.17999997735023499,&#34;b&#34;:0.0,&#34;a&#34;:1.0},&#34;position&#34;:0.36500000953674316},{&#34;color&#34;:{&#34;r&#34;:1.0,&#34;g&#34;:0.72000002861022949,&#34;b&#34;:0.0,&#34;a&#34;:1.0},&#34;position&#34;:0.51499998569488525},{&#34;color&#34;:{&#34;r&#34;:0.079166665673255920,&#34;g&#34;:0.94999998807907104,&#34;b&#34;:0.58424997329711914,&#34;a&#34;:1.0},&#34;position&#34;:0.66500002145767212},{&#34;color&#34;:{&#34;r&#34;:0.0,&#34;g&#34;:0.52000004053115845,&#34;b&#34;:1.0,&#34;a&#34;:1.0},&#34;position&#34;:0.83499997854232788},{&#34;color&#34;:{&#34;r&#34;:0.62000000476837158,&#34;g&#34;:0.0,&#34;b&#34;:1.0,&#34;a&#34;:1.0},&#34;position&#34;:1.0}],&#34;transform&#34;:{&#34;m00&#34;:1.4695762231022014e-15,&#34;m01&#34;:-24.0,&#34;m02&#34;:24.1503906250,&#34;m10&#34;:24.0,&#34;m11&#34;:1.4695762231022014e-15,&#34;m12&#34;:-1.4695762231022014e-15},&#34;opacity&#34;:1.0,&#34;blendMode&#34;:&#34;NORMAL&#34;,&#34;visible&#34;:true}" mask="url(#path-1-inside-1_321_9875)"/>
<path d="M5.4978 8.9202V7.17188H12.5453V8.9202H9.98383V16.6589H8.04576V8.9202H5.4978Z" fill="black"/>
<path d="M15.8655 12.0238H12.9381V10.4246H18.82L15.4725 15.0597H18.427V16.6589H12.4095L15.8655 12.0238Z" fill="black"/>
<defs>
<clipPath id="paint0_angular_321_9875_clip_path"><path d="M2.40039 0V1.5H21.9004V0V-1.5H2.40039V0ZM24.1504 2.25H22.6504V21.75H24.1504H25.6504V2.25H24.1504ZM21.9004 24V22.5H2.40039V24V25.5H21.9004V24ZM0.150391 21.75H1.65039V2.25H0.150391H-1.34961V21.75H0.150391ZM2.40039 24V22.5C1.98618 22.5 1.65039 22.1642 1.65039 21.75H0.150391H-1.34961C-1.34961 23.8211 0.329322 25.5 2.40039 25.5V24ZM24.1504 21.75H22.6504C22.6504 22.1642 22.3146 22.5 21.9004 22.5V24V25.5C23.9715 25.5 25.6504 23.8211 25.6504 21.75H24.1504ZM21.9004 0V1.5C22.3146 1.5 22.6504 1.83579 22.6504 2.25H24.1504H25.6504C25.6504 0.178932 23.9715 -1.5 21.9004 -1.5V0ZM2.40039 0V-1.5C0.329323 -1.5 -1.34961 0.178932 -1.34961 2.25H0.150391H1.65039C1.65039 1.83579 1.98618 1.5 2.40039 1.5V0Z" mask="url(#path-1-inside-1_321_9875)"/></clipPath></defs>
</svg>
