<svg width="34" height="34" viewBox="0 0 34 34" fill="none" xmlns="http://www.w3.org/2000/svg">
<path d="M27.9909 0.290527H6.47281C3.23169 0.290527 0.604248 2.91797 0.604248 6.15909V27.6772C0.604248 30.9183 3.23169 33.5457 6.47281 33.5457H27.9909C31.232 33.5457 33.8595 30.9183 33.8595 27.6772V6.15909C33.8595 2.91797 31.232 0.290527 27.9909 0.290527Z" fill="#0A3123"/>
<path d="M12.4065 18.9658L15.9722 10.3628H19.104L12.4065 24.3427L5.70898 10.3628H8.82193L12.4065 18.9658ZM18.2147 19.2299C18.2147 18.3244 18.4222 17.532 18.8373 16.8528C19.2649 16.1736 19.8372 15.6453 20.554 15.268C21.2837 14.8907 22.1074 14.702 23.0257 14.702C23.9437 14.702 24.7612 14.8907 25.4782 15.268C26.2076 15.6453 26.78 16.1736 27.1951 16.8528C27.6227 17.532 27.8365 18.3244 27.8365 19.2299C27.8365 20.123 27.6227 20.9154 27.1951 21.6071C26.78 22.2863 26.2076 22.8145 25.4782 23.1918C24.7612 23.5692 23.9437 23.7578 23.0257 23.7578C22.1074 23.7578 21.2837 23.5692 20.554 23.1918C19.8372 22.8145 19.2649 22.2863 18.8373 21.6071C18.4222 20.9154 18.2147 20.123 18.2147 19.2299ZM20.705 19.2299C20.705 19.7205 20.8056 20.1545 21.0069 20.5318C21.2207 20.8964 21.5038 21.1858 21.8559 21.3996C22.208 21.6009 22.5979 21.7014 23.0257 21.7014C23.4533 21.7014 23.8432 21.6009 24.1953 21.3996C24.5474 21.1858 24.8242 20.8964 25.0255 20.5318C25.2393 20.1545 25.3461 19.7205 25.3461 19.2299C25.3461 18.7394 25.2393 18.3055 25.0255 17.9282C24.8242 17.5508 24.5474 17.2615 24.1953 17.0603C23.8432 16.8591 23.4533 16.7585 23.0257 16.7585C22.5979 16.7585 22.208 16.8591 21.8559 17.0603C21.5038 17.2615 21.2207 17.5508 21.0069 17.9282C20.8056 18.3055 20.705 18.7394 20.705 19.2299Z" fill="#00FFA3"/>
</svg>
